<mxfile host="app.diagrams.net" agent="Mozilla/5.0 (Windows NT 10.0; Win64; x64) AppleWebKit/537.36 (KHTML, like Gecko) Chrome/136.0.0.0 Safari/537.36" version="27.0.6">
  <diagram name="第 1 页" id="xMhFyrMVeEGbnWVEs9dL">
    <mxGraphModel dx="2008" dy="1156" grid="1" gridSize="10" guides="1" tooltips="1" connect="1" arrows="1" fold="1" page="1" pageScale="1" pageWidth="291" pageHeight="413" math="0" shadow="0">
      <root>
        <mxCell id="0" />
        <mxCell id="1" parent="0" />
        <mxCell id="B_UUGv-yr5kfgkIHQYiB-2" value="&lt;font style=&quot;vertical-align: inherit;&quot;&gt;&lt;font face=&quot;宋体&quot; style=&quot;vertical-align: inherit;&quot;&gt;前端Vue页面&lt;/font&gt;&lt;/font&gt;" style="text;html=1;align=center;verticalAlign=middle;resizable=0;points=[];autosize=1;strokeColor=none;fillColor=none;fontFamily=Times New Roman;fontSize=20;" vertex="1" parent="1">
          <mxGeometry x="-350" width="130" height="40" as="geometry" />
        </mxCell>
        <mxCell id="B_UUGv-yr5kfgkIHQYiB-3" value="&lt;font style=&quot;font-size: 20px;&quot;&gt;Spring Boot接口&lt;/font&gt;" style="text;html=1;align=center;verticalAlign=middle;resizable=0;points=[];autosize=1;strokeColor=none;fillColor=none;fontFamily=宋体;" vertex="1" parent="1">
          <mxGeometry x="-370" y="123" width="170" height="40" as="geometry" />
        </mxCell>
        <mxCell id="B_UUGv-yr5kfgkIHQYiB-4" value="" style="rounded=1;whiteSpace=wrap;html=1;fontFamily=Times New Roman;fillColor=#d5e8d4;strokeColor=#82b366;" vertex="1" parent="1">
          <mxGeometry x="-205" y="-35" width="655" height="110" as="geometry" />
        </mxCell>
        <mxCell id="B_UUGv-yr5kfgkIHQYiB-5" value="&lt;font face=&quot;宋体&quot; style=&quot;font-size: 16px;&quot;&gt;前端触发一些事件，调用SpringBoot接口&lt;/font&gt;" style="rounded=0;whiteSpace=wrap;html=1;fontFamily=Times New Roman;strokeWidth=2;" vertex="1" parent="1">
          <mxGeometry x="-180" y="-5" width="290" height="50" as="geometry" />
        </mxCell>
        <mxCell id="B_UUGv-yr5kfgkIHQYiB-6" value="&lt;font style=&quot;font-size: 16px;&quot; face=&quot;宋体&quot;&gt;前端获取到数据，以表格或图像的形式显示在页面上&lt;/font&gt;" style="rounded=0;whiteSpace=wrap;html=1;fontFamily=Times New Roman;strokeWidth=2;" vertex="1" parent="1">
          <mxGeometry x="170" y="-13.75" width="250" height="67.5" as="geometry" />
        </mxCell>
        <mxCell id="B_UUGv-yr5kfgkIHQYiB-7" value="" style="rounded=1;whiteSpace=wrap;html=1;fontFamily=Times New Roman;fillColor=#ffe6cc;strokeColor=#d79b00;" vertex="1" parent="1">
          <mxGeometry x="-205" y="100" width="655" height="100" as="geometry" />
        </mxCell>
        <mxCell id="B_UUGv-yr5kfgkIHQYiB-8" value="&lt;font face=&quot;宋体&quot;&gt;&lt;span style=&quot;font-size: 16px;&quot;&gt;Springboot控制器接收到来自前端的请求数据，选择对数据库进行访问操作得到数据，或者调用Flask接口得到教据，最后将数据返回到前端&lt;/span&gt;&lt;/font&gt;" style="rounded=0;whiteSpace=wrap;html=1;fontFamily=Times New Roman;strokeWidth=2;" vertex="1" parent="1">
          <mxGeometry x="-160" y="127.5" width="540" height="45" as="geometry" />
        </mxCell>
        <mxCell id="B_UUGv-yr5kfgkIHQYiB-11" style="edgeStyle=orthogonalEdgeStyle;rounded=0;orthogonalLoop=1;jettySize=auto;html=1;exitX=0.5;exitY=1;exitDx=0;exitDy=0;entryX=0.231;entryY=-0.078;entryDx=0;entryDy=0;entryPerimeter=0;strokeWidth=3;" edge="1" parent="1" source="B_UUGv-yr5kfgkIHQYiB-5" target="B_UUGv-yr5kfgkIHQYiB-8">
          <mxGeometry relative="1" as="geometry" />
        </mxCell>
        <mxCell id="B_UUGv-yr5kfgkIHQYiB-14" value="" style="endArrow=classic;html=1;rounded=0;entryX=0.5;entryY=1;entryDx=0;entryDy=0;exitX=0.843;exitY=0.056;exitDx=0;exitDy=0;exitPerimeter=0;strokeWidth=2;" edge="1" parent="1" source="B_UUGv-yr5kfgkIHQYiB-8" target="B_UUGv-yr5kfgkIHQYiB-6">
          <mxGeometry width="50" height="50" relative="1" as="geometry">
            <mxPoint x="120" y="200" as="sourcePoint" />
            <mxPoint x="170" y="150" as="targetPoint" />
          </mxGeometry>
        </mxCell>
        <mxCell id="B_UUGv-yr5kfgkIHQYiB-15" value="" style="endArrow=none;dashed=1;html=1;rounded=0;strokeWidth=2;strokeColor=#CCCCCC;" edge="1" parent="1">
          <mxGeometry width="50" height="50" relative="1" as="geometry">
            <mxPoint x="-360" y="90" as="sourcePoint" />
            <mxPoint x="550" y="90" as="targetPoint" />
          </mxGeometry>
        </mxCell>
        <mxCell id="B_UUGv-yr5kfgkIHQYiB-16" value="" style="endArrow=none;dashed=1;html=1;rounded=0;strokeWidth=2;strokeColor=#CCCCCC;" edge="1" parent="1">
          <mxGeometry width="50" height="50" relative="1" as="geometry">
            <mxPoint x="-360" y="210" as="sourcePoint" />
            <mxPoint x="550" y="210" as="targetPoint" />
          </mxGeometry>
        </mxCell>
        <mxCell id="B_UUGv-yr5kfgkIHQYiB-17" value="" style="endArrow=none;dashed=1;html=1;rounded=0;strokeWidth=2;strokeColor=#CCCCCC;" edge="1" parent="1">
          <mxGeometry width="50" height="50" relative="1" as="geometry">
            <mxPoint x="-360" y="330" as="sourcePoint" />
            <mxPoint x="550" y="330" as="targetPoint" />
          </mxGeometry>
        </mxCell>
        <mxCell id="B_UUGv-yr5kfgkIHQYiB-19" value="" style="rounded=1;whiteSpace=wrap;html=1;fontFamily=Times New Roman;fillColor=#fff2cc;strokeColor=#d6b656;" vertex="1" parent="1">
          <mxGeometry x="-205" y="220" width="655" height="100" as="geometry" />
        </mxCell>
        <mxCell id="B_UUGv-yr5kfgkIHQYiB-18" value="&lt;font style=&quot;font-size: 20px;&quot; face=&quot;宋体&quot;&gt;Flask接口&lt;/font&gt;" style="text;html=1;align=center;verticalAlign=middle;resizable=0;points=[];autosize=1;strokeColor=none;fillColor=none;fontFamily=Times New Roman;" vertex="1" parent="1">
          <mxGeometry x="-325" y="245" width="110" height="40" as="geometry" />
        </mxCell>
        <mxCell id="B_UUGv-yr5kfgkIHQYiB-20" value="&lt;font face=&quot;宋体&quot;&gt;&lt;span style=&quot;font-size: 16px;&quot;&gt;Flask接口得到Java传过来的请求数据时，调用python脚本，即它的函数，进行运算分析，得到预测的数据，以ison格式返回到Java，即SpringBoot控制器中&lt;/span&gt;&lt;/font&gt;" style="rounded=0;whiteSpace=wrap;html=1;fontFamily=Times New Roman;strokeWidth=2;" vertex="1" parent="1">
          <mxGeometry x="-167.5" y="238.75" width="580" height="62.5" as="geometry" />
        </mxCell>
        <mxCell id="B_UUGv-yr5kfgkIHQYiB-22" style="edgeStyle=orthogonalEdgeStyle;rounded=0;orthogonalLoop=1;jettySize=auto;html=1;entryX=0.231;entryY=-0.078;entryDx=0;entryDy=0;entryPerimeter=0;strokeWidth=3;" edge="1" parent="1">
          <mxGeometry relative="1" as="geometry">
            <mxPoint x="120" y="170" as="sourcePoint" />
            <mxPoint x="120" y="238.75" as="targetPoint" />
          </mxGeometry>
        </mxCell>
        <mxCell id="B_UUGv-yr5kfgkIHQYiB-23" value="" style="endArrow=none;dashed=1;html=1;rounded=0;strokeWidth=2;strokeColor=#CCCCCC;" edge="1" parent="1">
          <mxGeometry width="50" height="50" relative="1" as="geometry">
            <mxPoint x="-360" y="450" as="sourcePoint" />
            <mxPoint x="550" y="450" as="targetPoint" />
          </mxGeometry>
        </mxCell>
        <mxCell id="B_UUGv-yr5kfgkIHQYiB-24" value="&lt;font style=&quot;font-size: 20px;&quot; face=&quot;宋体&quot;&gt;Python脚本&lt;/font&gt;" style="text;html=1;align=center;verticalAlign=middle;resizable=0;points=[];autosize=1;strokeColor=none;fillColor=none;fontFamily=Times New Roman;" vertex="1" parent="1">
          <mxGeometry x="-330" y="373" width="120" height="40" as="geometry" />
        </mxCell>
        <mxCell id="B_UUGv-yr5kfgkIHQYiB-25" value="" style="rounded=1;whiteSpace=wrap;html=1;fontFamily=Times New Roman;fillColor=#b0e3e6;strokeColor=#0e8088;" vertex="1" parent="1">
          <mxGeometry x="-205" y="342" width="655" height="102" as="geometry" />
        </mxCell>
        <mxCell id="B_UUGv-yr5kfgkIHQYiB-26" style="edgeStyle=orthogonalEdgeStyle;rounded=0;orthogonalLoop=1;jettySize=auto;html=1;entryX=0.231;entryY=-0.078;entryDx=0;entryDy=0;entryPerimeter=0;strokeWidth=3;" edge="1" parent="1">
          <mxGeometry relative="1" as="geometry">
            <mxPoint x="120" y="301.25" as="sourcePoint" />
            <mxPoint x="120" y="370" as="targetPoint" />
          </mxGeometry>
        </mxCell>
        <mxCell id="B_UUGv-yr5kfgkIHQYiB-27" value="&lt;font style=&quot;font-size: 16px;&quot; face=&quot;宋体&quot;&gt;处理数据&lt;/font&gt;" style="rounded=0;whiteSpace=wrap;html=1;fontFamily=Times New Roman;strokeWidth=2;" vertex="1" parent="1">
          <mxGeometry x="77.5" y="369.5" width="90" height="47" as="geometry" />
        </mxCell>
        <mxCell id="B_UUGv-yr5kfgkIHQYiB-28" value="&lt;font style=&quot;font-size: 16px;&quot; face=&quot;宋体&quot;&gt;得到一些表格数据&lt;/font&gt;" style="rounded=0;whiteSpace=wrap;html=1;fontFamily=Times New Roman;strokeWidth=2;" vertex="1" parent="1">
          <mxGeometry x="270" y="368" width="100" height="47" as="geometry" />
        </mxCell>
        <mxCell id="B_UUGv-yr5kfgkIHQYiB-29" value="&lt;font style=&quot;font-size: 16px;&quot; face=&quot;宋体&quot;&gt;预测算法&lt;/font&gt;" style="rounded=0;whiteSpace=wrap;html=1;fontFamily=Times New Roman;strokeWidth=2;" vertex="1" parent="1">
          <mxGeometry x="-110" y="368" width="100" height="50" as="geometry" />
        </mxCell>
        <mxCell id="B_UUGv-yr5kfgkIHQYiB-31" value="" style="endArrow=none;html=1;rounded=0;strokeWidth=2;" edge="1" parent="1">
          <mxGeometry width="50" height="50" relative="1" as="geometry">
            <mxPoint x="-60" y="330" as="sourcePoint" />
            <mxPoint x="320" y="330" as="targetPoint" />
          </mxGeometry>
        </mxCell>
        <mxCell id="B_UUGv-yr5kfgkIHQYiB-32" value="" style="endArrow=classic;html=1;rounded=0;entryX=0.5;entryY=0;entryDx=0;entryDy=0;strokeWidth=2;" edge="1" parent="1" target="B_UUGv-yr5kfgkIHQYiB-29">
          <mxGeometry width="50" height="50" relative="1" as="geometry">
            <mxPoint x="-60" y="330" as="sourcePoint" />
            <mxPoint x="-30" y="288" as="targetPoint" />
            <Array as="points">
              <mxPoint x="-60" y="350" />
            </Array>
          </mxGeometry>
        </mxCell>
        <mxCell id="B_UUGv-yr5kfgkIHQYiB-33" value="" style="endArrow=classic;html=1;rounded=0;entryX=0.5;entryY=0;entryDx=0;entryDy=0;strokeWidth=2;" edge="1" parent="1">
          <mxGeometry width="50" height="50" relative="1" as="geometry">
            <mxPoint x="319.5" y="330" as="sourcePoint" />
            <mxPoint x="319.5" y="368" as="targetPoint" />
            <Array as="points">
              <mxPoint x="319.5" y="350" />
            </Array>
          </mxGeometry>
        </mxCell>
      </root>
    </mxGraphModel>
  </diagram>
</mxfile>
